<svg class="icon" viewBox="0 0 1024 1024" xmlns="http://www.w3.org/2000/svg" width="200" height="200"><path d="m305.54 887.28-78.41 69.08-23.62-24.58c-11.95-13.83-19.27-27.63-20.5-41.46-.39-4.58.58-10.75.2-15.3L210.6 574.1l65.34-59.87 57.45 59.87-27.85 313.18zm38.6-435.97-68.2 62.95-54.63-62.95L244 184.2c3-18.45 3.58-29.16 4.58-35.33 1.85-13.8 8.59-24.58 21.46-35.3l41.3-36.83 59.61 67.55-26.82 307zm283.43 449.8 66.31 73.67-34.14 30.75c-14.14 13.75-30.63 18.41-59.8 18.41H329.78c-29.17 0-46.58-6.16-58.41-18.41l-27.28-30.75 82.6-73.67h300.9zM393.7 122.83l-64.11-66 29.55-30.74C377.47 7.67 395.23 0 418.23 0h280.93c21.5 0 42.38 10.75 56.02 26.09l24.05 29.2-80.07 67.54H393.7zM680.32 574.1l68.28-61.38 54.52 61.38-22.81 265.6c-1.31 19.95-3.32 32.24-2.93 36.87-1.85 13.75-8.75 23-23 35.25l-44.5 35.3-56.03-61.38 26.47-311.64zm39.15-429.8 79.9-69.09 18.77 21.5c13.64 15.34 20.96 29.17 22.31 44.5.54 6.17 1.08 12.3.08 18.42L815.4 451.31l-69.86 61.45-52.98-61.45 26.9-307.01z" fill="#187759"/></svg>