<svg class="icon" viewBox="0 0 1024 1024" xmlns="http://www.w3.org/2000/svg" width="200" height="200"><path d="m344.62 435.96-65.55 58.33-28.9-32.2c-15.18-15.34-22.66-30.72-24.12-47.56-.54-6.16-1.2-13.83-.46-23.08l33.37-373.03 111.78 119.72-26.12 297.82zm283.2 465.2 64.55 70.63-31.25 29.17C642.78 1019.38 626.3 1024 591 1024H293.17l-57.4-59.88 68.15-62.96h323.9zM395.49 122.84 281.88 0h449.8l57.8 64.5-68.56 58.34H395.48zm239.1 328.5c36.83 0 41.72 3.03 68.81 32.28l27.13 29.17-72.94 61.34h-248.7c-47.58 0-58.75-4.58-84.07-30.7l-27.13-29.18 71.25-62.96h265.64zm44.3 138.17 68.44-59.88 30.32 30.7c11.83 12.26 19.54 30.72 20.77 44.51.66 7.67.2 19.96-.11 33.8l-18.73 207.22c-2.93 36.84-11.8 58.38-26.05 70.63l-42.7 38.38-57.83-64.5 25.9-300.86z" fill="#d81e06"/></svg>