<svg class="icon" viewBox="0 0 1024 1024" xmlns="http://www.w3.org/2000/svg" width="200" height="200"><path d="M350 799a162 162 0 1 0 324 0 162 162 0 1 0-324 0Z" fill="#03BD61"/><path d="M252 696.9c20.4 0 36.9-16.5 36.9-36.9V444.2C288.8 321.1 388.9 221 512 221s223.2 100.1 223.2 223.2v215.9c0 20.4 16.5 36.9 36.9 36.9s36.9-16.5 36.9-36.9V444.2c0-151.2-113.7-276.3-260-294.5V99.9c0-20.4-16.5-36.9-36.9-36.9s-36.9 16.5-36.9 36.9v49.8c-146.4 18.2-260 143.3-260 294.5v215.9a36.7 36.7 0 0 0 36.8 36.8zm615.5 29.7h-711c-20.4 0-36.9 16.5-36.9 36.9s16.5 36.9 36.9 36.9h711c20.4 0 36.9-16.5 36.9-36.9s-16.5-36.9-36.9-36.9z" fill="#23202D"/></svg>