<svg class="icon" viewBox="0 0 1024 1024" xmlns="http://www.w3.org/2000/svg" width="200" height="200"><path d="M377.1 536.2 350 583.3c-34.7 60.2 8.7 135.4 78.1 135.4h187c69.5 0 112.9-75.2 78.1-135.4l-28.7-49.7c-49 7.9-100.2 12.1-152.5 12.1-46.1-.1-91.3-3.3-134.9-9.5zm66.4-114.8L413.7 473a888.18 888.18 0 0 0 214.5-2.3l-28.5-49.3c-34.7-60.2-121.5-60.2-156.2 0z" fill="#03BD61"/><path d="M851.2 161.8c-3.2-.3-6.5-.5-9.8-.5H182.6c-3.3 0-6.6.2-9.8.5-48.2 4.9-86 45.7-86 95.2v509.9c0 52.8 42.9 95.7 95.7 95.7h658.8c52.8 0 95.7-42.9 95.7-95.7V257.1c.1-49.5-37.6-90.4-85.8-95.3zm18.7 605.1c0 15.7-12.8 28.5-28.5 28.5H182.6c-15.7 0-28.5-12.8-28.5-28.5V471.7c65.7 31.2 141.6 53 223 64.5 43.6 6.2 88.7 9.4 134.9 9.4 52.4 0 103.5-4.2 152.5-12.1 74.7-12.1 144.4-33 205.3-61.9v295.3zm0-370.6c-67.1 36.9-151.1 62.5-241.6 74.4-37.9 5-76.9 7.7-116.2 7.7-33.2 0-66.1-1.8-98.3-5.4-97.3-10.8-188-37.4-259.5-76.7V257.1a28.45 28.45 0 0 1 28.5-28.5h658.8c2.9 0 5.8.4 8.5 1.3 11.6 3.6 20 14.4 20 27.2v139.2z" fill="#23202D"/></svg>