<svg class="icon" viewBox="0 0 1024 1024" xmlns="http://www.w3.org/2000/svg" width="200" height="200"><path d="M512 850.6c57.7 0 347.2-177.3 347.2-428.2C859.2 231 703.5 75.3 512 75.3S164.8 231 164.8 422.5c0 250.8 289.5 428.1 347.2 428.1zm0-699.4c149.6 0 271.3 121.7 271.3 271.3 0 196.3-223.1 335.1-271.3 351.4-48.2-16.3-271.3-155.1-271.3-351.4 0-149.6 121.7-271.3 271.3-271.3zm284.8 721.6H227.2c-21 0-38 17-38 38s17 38 38 38h569.7c21 0 38-17 38-38-.1-21-17.1-38-38.1-38z" fill="#23202D"/><path d="M345.2 432a166.8 166.8 0 1 0 333.6 0 166.8 166.8 0 1 0-333.6 0Z" fill="#03BD61"/></svg>