<svg class="icon" viewBox="0 0 1024 1024" xmlns="http://www.w3.org/2000/svg" width="200" height="200"><path d="M587.3 684.1H436.7c-88.8 0-160.8-72-160.8-160.8v-76.6c0-88.8 72-160.8 160.8-160.8h150.7c88.8 0 160.8 72 160.8 160.8v76.6c0 88.8-72 160.8-160.9 160.8z" fill="#03BD61"/><path d="M728.2 127.5H295.8C174 127.5 75.3 226.2 75.3 348v208.6c0 121.8 98.7 220.5 220.5 220.5h63.1c.2 0 .4.3.3.5-12.6 20.1-29.8 39.5-51.4 54.8-10.4 7.3-16.7 19.5-15.4 32.1a34.36 34.36 0 0 0 30.3 30.6c1.8.2 13 1.4 30 1.4 55.5 0 173.5-21.9 234.6-119.2.1-.1.1-.1.3-.1h140.7c121.8 0 220.5-98.7 220.5-220.5V348c-.1-121.8-98.8-220.5-220.6-220.5zm152.1 429.2c0 84-68.1 152.1-152.1 152.1H560.3c-10 2.2-18.7 8.8-23.4 18.3-9.5 19.5-22.6 36.3-37.5 50.1-24.7 22.9-54.6 37.8-82.4 43.9-.3.1-.5-.2-.3-.5 8.3-12 15.2-27.9 20.7-43.5 3.5-9.9 6.5-19.7 8.9-28.1 4.6-16.4-3.5-33.3-18.4-40.3H295.8c-84 0-152.1-68.1-152.1-152.1V348c0-84 68.1-152.1 152.1-152.1h432.4c84 0 152.1 68.1 152.1 152.1v208.7z" fill="#23202D"/></svg>