<svg class="icon" viewBox="0 0 1024 1024" xmlns="http://www.w3.org/2000/svg" width="200" height="200"><path d="M809.7 541.5c0 1.1.1 2.2.1 3.3 0 187.2-152.3 339.5-339.5 339.5S130.8 732 130.8 544.8s152.3-339.5 339.5-339.5h.7v-70.5h-.7c-226.1 0-410 183.9-410 410s183.9 410 410 410 410-183.9 410-410c0-1.1-.1-2.2-.1-3.3h-70.5z" fill="#23202D"/><path d="M963 454.5c-5.7-96.7-45.3-191.8-119.1-265.6-77.8-77.8-179.4-117.6-281.6-119.7-23.6-.5-47.2 1-70.5 4.6v416a35.3 35.3 0 0 0 35.3 35.3h434.1c2.5-23.5 3.2-47.1 1.8-70.6zm-400.7 0V139.7c84.1 2 167.7 35 231.7 99.1 60 60 92.7 137 98.3 215.7h-330z" fill="#23202D"/><path d="M585.4 434.3h273.3c-19.2-139.9-132.1-249.9-273.3-264.7v264.7z" fill="#03BD61"/></svg>