<svg class="icon" viewBox="0 0 1024 1024" xmlns="http://www.w3.org/2000/svg" width="200" height="200"><path d="M815.7 370.9H668.6c-38.3 0-69.4-31.1-69.4-69.4V125.2l216.5 245.7z" fill="#03BD61"/><path d="M306.7 521.2c0 19.8 16.1 35.9 35.9 35.9H666c19.8 0 35.9-16.1 35.9-35.9s-16.1-35.9-35.9-35.9H342.6a35.8 35.8 0 0 0-35.9 35.9zm35.9-151.8h205.3c19.8 0 35.9-16.1 35.9-35.9 0-19.8-16.1-35.9-35.9-35.9H342.6c-19.8 0-35.9 16.1-35.9 35.9 0 19.8 16.1 35.9 35.9 35.9zM666 673.7H342.6c-19.8 0-35.9 16.1-35.9 35.9s16.1 35.9 35.9 35.9H666c19.8 0 35.9-16.1 35.9-35.9s-16.1-35.9-35.9-35.9z" fill="#23202D"/><path d="M644.7 83.4H270.4c-56.4 0-102.3 45.9-102.3 102.3v652.6c0 56.4 45.9 102.3 102.3 102.3h483.2c56.4 0 102.3-45.9 102.3-102.3V319.7L644.7 83.4zM784 838.3c0 16.8-13.6 30.4-30.4 30.4H270.4c-16.8 0-30.4-13.6-30.4-30.4V185.7c0-16.8 13.7-30.4 30.4-30.4h342.1L784 347.2v491.1z" fill="#23202D"/></svg>