<svg class="icon" viewBox="0 0 1024 1024" xmlns="http://www.w3.org/2000/svg" width="200" height="200"><path d="M766.4 685.9H257.6c-3.5 0-6.4-2.9-6.4-6.4v-335c0-3.5 2.9-6.4 6.4-6.4h508.9c3.5 0 6.4 2.9 6.4 6.4v335c-.1 3.5-2.9 6.4-6.5 6.4z" fill="#03BD61"/><path d="M742 941.3H282a39.3 39.3 0 0 1 0-78.6h460a39.3 39.3 0 0 1 0 78.6zM868.8 75.2c-3.8-.4-7.6-.6-11.4-.6H166.6c-3.9 0-7.7.2-11.4.6-56.3 5.7-100.4 53.4-100.4 111.2v511.2c0 61.6 50.1 111.8 111.8 111.8h690.8c61.6 0 111.8-50.1 111.8-111.8V186.4c0-57.8-44.1-105.5-100.4-111.2zm21.8 189.6-.1 88.1h.1v344.8c0 18.3-14.9 33.3-33.3 33.3H166.6c-18.3 0-33.3-14.9-33.3-33.3V186.4c0-14.9 9.8-27.5 23.4-31.8 3.1-1 6.4-1.5 9.9-1.5h690.8c3.4 0 6.8.5 9.9 1.5a33.4 33.4 0 0 1 23.4 31.8v78.4z" fill="#23202D"/></svg>